<?xml version="1.0" encoding="utf-8"?>
<!-- Generator: Adobe Illustrator 26.0.2, SVG Export Plug-In . SVG Version: 6.00 Build 0)  -->
<svg version="1.1" id="Layer_1" xmlns="http://www.w3.org/2000/svg" xmlns:xlink="http://www.w3.org/1999/xlink" x="0px" y="0px"
	 viewBox="0 0 1000 98.6" style="enable-background:new 0 0 1000 98.6;" xml:space="preserve">
<g>
	<path d="M11.5,83.8V13.4h50c7.8,0,14.8,0.6,20.8,1.9c6.1,1.3,10.9,2.9,14.7,5c3.7,2.1,6.8,4.6,9.1,7.6c2.4,3,4,6,4.9,9
		c0.9,3,1.3,6.3,1.3,9.8v2.8c0,3.5-0.4,6.7-1.2,9.8c-0.8,3-2.3,6.1-4.6,9.2c-2.3,3.1-5.3,5.7-8.9,7.9c-3.6,2.2-8.5,4-14.7,5.3
		c-6.2,1.4-13.3,2.1-21.3,2.1H11.5z M38.4,31.8v33.3h20c17.4,0,26-5.5,26-16.5v-0.6c0-10.9-8.7-16.3-26-16.3H38.4z"/>
	<path d="M163.9,77c-5.2,5.2-13.1,7.8-23.9,7.8h-1c-8,0-13.9-1.6-17.8-4.7c-3.9-3.2-5.8-7-5.8-11.6v-1.1c0-4.4,1.6-7.8,4.8-10.3
		c3.2-2.4,8.5-3.9,15.9-4.5l24.5-2.2c1.9-0.3,2.8-1.1,2.8-2.5c0-0.8-0.2-1.4-0.6-1.9c-0.4-0.5-1.5-1-3.2-1.4
		c-1.7-0.4-4.1-0.6-7.3-0.6h-0.4c-2.5,0-4.6,0.2-6.3,0.5c-1.7,0.3-2.8,0.9-3.5,1.6c-0.7,0.7-1.1,1.2-1.2,1.6
		c-0.2,0.3-0.3,0.9-0.4,1.6h-23.9v-0.6c0-1.7,0.1-3.2,0.4-4.4c0.3-1.3,1.1-2.7,2.3-4.4c1.3-1.7,3-3.1,5.2-4.2c2.2-1.1,5.4-2,9.7-2.8
		c4.3-0.8,9.3-1.2,15.1-1.2h5.3c6.1,0,11.3,0.4,15.7,1.1c4.4,0.7,7.8,1.6,10,2.7c2.3,1,4.1,2.4,5.4,4c1.3,1.6,2.1,3,2.4,4.3
		c0.3,1.2,0.4,2.7,0.4,4.4v18.8c0,1.5,0.7,2.2,2.2,2.2h2.7v14.9h-21.4C167.4,83.8,164.6,81.5,163.9,77z M163.4,61.9v-2.2l-17,3
		c-2.3,0.4-3.9,0.9-4.8,1.5c-0.9,0.6-1.4,1.6-1.4,2.8v0.1c0,1.5,0.6,2.7,1.8,3.7c1.2,1,3.3,1.5,6.2,1.5c4.5,0,8.2-1.1,11-3.2
		C162,67.2,163.4,64.7,163.4,61.9z"/>
	<path d="M197.9,83.8V32.9h25.6v9c0.9-0.9,1.7-1.6,2.2-2c0.5-0.5,1.7-1.3,3.5-2.5c1.8-1.2,3.6-2.1,5.3-2.8c1.7-0.7,3.9-1.3,6.7-1.9
		c2.7-0.6,5.6-0.9,8.7-0.9h0.6c4.5,0,8.5,0.6,11.9,1.8c3.4,1.2,6,2.8,7.8,4.8c1.8,2,3.2,4,4,6.2c0.9,2.1,1.3,4.3,1.3,6.5v32.8h-25.8
		V59.5c0-3.6-1-6.5-3-8.6c-2-2.1-5.1-3.2-9.3-3.2c-4.2,0-7.5,1.1-9.9,3.4c-2.4,2.3-3.6,5.3-3.6,9v23.7H197.9z"/>
	<path d="M308.6,13.4v15.2h-25.8V13.4H308.6z M308.6,32.9v50.9h-25.8V32.9H308.6z"/>
	<path d="M394.7,65.3v0.2c0,1.7-0.2,3.3-0.7,4.8c-0.4,1.5-1.5,3.2-3,5.2c-1.6,1.9-3.7,3.6-6.2,4.9c-2.6,1.4-6.3,2.5-11,3.5
		c-4.8,0.9-10.3,1.4-16.6,1.4h-5c-6,0-11.3-0.5-15.9-1.6c-4.6-1.1-8.3-2.5-11-4.2c-2.7-1.7-4.9-3.7-6.6-6.1c-1.7-2.4-2.9-4.7-3.5-7
		c-0.6-2.3-0.9-4.7-0.9-7.3v-1.9c0-17.1,12.5-25.7,37.6-25.7h5.2c4.6,0,8.8,0.3,12.5,0.9c3.8,0.6,6.9,1.4,9.5,2.4
		c2.6,1,4.8,2.3,6.8,3.8c1.9,1.5,3.5,3,4.6,4.6c1.1,1.5,2.1,3.3,2.7,5.2c0.7,1.9,1.1,3.7,1.4,5.4c0.2,1.7,0.3,3.5,0.3,5.4V62h-55.4
		c0.9,6.2,6,9.4,15.4,9.4h0.1c2.3,0,4.3-0.2,6.1-0.6c1.8-0.4,3.2-0.8,4.2-1.3c1-0.5,1.8-1,2.4-1.7c0.6-0.6,1-1.2,1.2-1.6
		c0.2-0.4,0.3-0.8,0.4-1.1H394.7z M354.4,44c-8.4,0-13.3,2.6-14.7,7.7h29.4C368,46.5,363.1,44,354.4,44z"/>
	<path d="M426,13.4v70.4h-25.8V13.4H426z"/>
	<path d="M463.1,83.8V13.4H500l21.6,39.6l22-39.6H579v70.4h-26.6V39.9l-24.7,43.9H514l-24.6-43.9v43.9H463.1z"/>
	<path d="M665.8,65.3v0.2c0,1.7-0.2,3.3-0.7,4.8c-0.4,1.5-1.5,3.2-3,5.2c-1.6,1.9-3.7,3.6-6.2,4.9c-2.6,1.4-6.3,2.5-11,3.5
		c-4.8,0.9-10.3,1.4-16.6,1.4h-5c-6,0-11.3-0.5-15.9-1.6c-4.6-1.1-8.3-2.5-11-4.2c-2.7-1.7-4.9-3.7-6.6-6.1c-1.7-2.4-2.9-4.7-3.5-7
		c-0.6-2.3-0.9-4.7-0.9-7.3v-1.9c0-17.1,12.5-25.7,37.6-25.7h5.2c4.6,0,8.8,0.3,12.5,0.9c3.8,0.6,6.9,1.4,9.5,2.4
		c2.6,1,4.8,2.3,6.8,3.8c1.9,1.5,3.5,3,4.6,4.6c1.1,1.5,2.1,3.3,2.7,5.2c0.7,1.9,1.1,3.7,1.4,5.4c0.2,1.7,0.3,3.5,0.3,5.4V62h-55.4
		c0.9,6.2,6,9.4,15.4,9.4h0.1c2.3,0,4.3-0.2,6.1-0.6c1.8-0.4,3.2-0.8,4.2-1.3c1-0.5,1.8-1,2.4-1.7c0.6-0.6,1-1.2,1.2-1.6
		c0.2-0.4,0.3-0.8,0.4-1.1H665.8z M625.6,44c-8.4,0-13.3,2.6-14.7,7.7h29.4C639.2,46.5,634.3,44,625.6,44z"/>
	<path d="M697,32.9v9.4c0.9-1.4,2.1-2.8,3.6-4.1c1.4-1.4,3.8-2.8,7.1-4.2c3.3-1.5,6.8-2.2,10.7-2.2h1.1c4,0,7.5,0.6,10.4,1.9
		c2.9,1.3,5.1,3.1,6.6,5.3c1.5,2.2,2.6,4.6,3.3,7.1c0.7,2.5,1,5.2,1,8.2v5.1h-25v-1.8c0-3.1-0.7-5.6-2.2-7.5c-1.5-1.9-3.8-2.9-7-2.9
		c-3,0-5.3,1-7,3c-1.7,2-2.5,4.7-2.5,8v25.7h-25.8V32.9H697z"/>
	<path d="M782.8,85.2h-5.2c-22.7,0-34-6-34-18.1v-0.7h26.2c0,0.6,0.1,1.2,0.3,1.8c0.2,0.6,0.6,1.2,1.3,2c0.6,0.8,1.7,1.4,3.3,1.8
		c1.5,0.4,3.4,0.7,5.6,0.7h0.2c4.1,0,6.9-0.4,8.3-1.1c1.5-0.8,2.2-1.8,2.2-3.1v-0.2c0-1.3-0.6-2.3-1.9-3c-1.3-0.7-3.9-1.1-7.9-1.2
		l-10.8-0.3c-17.5-0.6-26.3-6-26.3-16v-0.6c0-2.3,0.4-4.3,1.3-6c0.9-1.7,2.5-3.4,4.8-5c2.3-1.6,5.7-2.8,10.3-3.6
		c4.6-0.8,10.2-1.2,17-1.2h5c22.3,0,33.4,5.3,33.4,15.8v0.7h-25.8c-0.1-0.8-0.3-1.5-0.7-2c-0.3-0.5-1.3-1.1-2.9-1.8
		c-1.6-0.6-3.8-0.9-6.7-0.9H780c-3.9,0-6.5,0.3-7.9,0.8c-1.4,0.5-2,1.4-2,2.7v0.1c0,1.1,0.7,2,2,2.7c1.3,0.6,3.8,1,7.5,1.1l10.7,0.3
		c7.5,0.3,13.3,1,17.4,2.4c4.1,1.3,6.8,3.1,8.2,5.2c1.4,2.1,2.1,5,2.1,8.6v0.7c0,2-0.3,3.8-0.8,5.4c-0.5,1.6-1.5,3.2-3,4.7
		c-1.5,1.5-3.5,2.8-6.1,3.9c-2.5,1-5.9,1.9-10.2,2.5C793.7,84.9,788.6,85.2,782.8,85.2z"/>
	<path d="M866.9,85.2h-7c-6.2,0-11.7-0.6-16.5-1.8c-4.7-1.2-8.5-2.6-11.2-4.4c-2.7-1.7-5-3.8-6.7-6.3c-1.7-2.5-2.8-4.8-3.4-7
		c-0.6-2.2-0.9-4.5-0.9-7v-1.5c0-2.4,0.3-4.7,0.9-6.9c0.6-2.2,1.7-4.5,3.4-6.9c1.7-2.4,3.9-4.4,6.6-6.2c2.7-1.7,6.5-3.1,11.2-4.3
		c4.8-1.1,10.3-1.7,16.5-1.7h7.2c25.6,0,38.4,8.6,38.4,25.8v1.7c0,2.5-0.2,4.8-0.7,7c-0.4,2.1-1.5,4.4-3.1,7
		c-1.6,2.5-3.7,4.6-6.4,6.3c-2.7,1.7-6.4,3.1-11.3,4.3C879.2,84.7,873.5,85.2,866.9,85.2z M863.5,45.8L863.5,45.8
		c-5.9,0-10,1.2-12.5,3.5c-2.4,2.3-3.6,5.1-3.6,8.5v0.4c0,3.4,1.2,6.4,3.6,8.9c2.4,2.5,6.5,3.7,12.4,3.7h0.1c5.7,0,9.8-1.3,12.2-3.8
		c2.5-2.6,3.7-5.5,3.7-8.8v-0.4c0-3.3-1.2-6.2-3.6-8.5C873.3,47,869.2,45.8,863.5,45.8z"/>
	<path d="M911,83.8V32.9h25.6v9c0.9-0.9,1.7-1.6,2.2-2s1.7-1.3,3.5-2.5c1.8-1.2,3.6-2.1,5.3-2.8c1.7-0.7,3.9-1.3,6.7-1.9
		c2.7-0.6,5.6-0.9,8.7-0.9h0.6c4.5,0,8.5,0.6,11.9,1.8c3.4,1.2,6,2.8,7.8,4.8c1.8,2,3.2,4,4,6.2c0.9,2.1,1.3,4.3,1.3,6.5v32.8h-25.8
		V59.5c0-3.6-1-6.5-3-8.6c-2-2.1-5.1-3.2-9.3-3.2c-4.2,0-7.5,1.1-9.9,3.4c-2.4,2.3-3.6,5.3-3.6,9v23.7H911z"/>
</g>
</svg>
