<?xml version="1.0" encoding="utf-8"?>
<!-- Generator: Adobe Illustrator 25.1.0, SVG Export Plug-In . SVG Version: 6.00 Build 0)  -->
<svg version="1.1" id="Layer_1" xmlns="http://www.w3.org/2000/svg" xmlns:xlink="http://www.w3.org/1999/xlink" x="0px" y="0px"
	 viewBox="0 0 100 100" style="enable-background:new 0 0 100 100;" xml:space="preserve">
<style type="text/css">
	.st0{fill:#FFFFFF;}
</style>
<g>
	<path class="st0" d="M60.8,25.8c-0.4,2.2-0.9,3.7-0.9,3.7l-0.9,4.1l-3,13.5l-5.4,25.5l-0.4,2C62,72.1,72.6,62,75.1,50.1
		C77.6,38.2,71.4,28.3,60.8,25.8z"/>
	<path class="st0" d="M25.1,50c-2.5,11.8,3.6,21.5,14,24.2l4.4-20.1L49,28.1l0.5-2.4C37.9,28.4,27.6,38.2,25.1,50z"/>
	<path class="st0" d="M0,0v100h100V0H0z M86.6,50c-3.1,14.9-19.4,27.2-37.5,29.3l-0.1,0.4c-1.4,6.2,5.4,6.4,10.2,6.4v5.8H25.9v-5.8
		c9.4,0,11.2-4.1,11.9-6.8l-0.1-0.1C21.1,76.9,10.4,64.7,13.5,50c3.1-14.7,19.1-26.9,37-29.2c0.6-6.5-3.9-7-13-7V8.2h36.7v5.7
		c-9.6,0-11.6,3.6-12.3,6.9C79,23,89.9,35.3,86.6,50z"/>
</g>
</svg>
